<?xml version="1.0" encoding="utf-8"?>
<!-- Generator: Adobe Illustrator 16.0.3, SVG Export Plug-In . SVG Version: 6.00 Build 0)  -->
<!DOCTYPE svg PUBLIC "-//W3C//DTD SVG 1.1//EN" "http://www.w3.org/Graphics/SVG/1.1/DTD/svg11.dtd">
<svg version="1.1" id="Capa_1" xmlns="http://www.w3.org/2000/svg" xmlns:xlink="http://www.w3.org/1999/xlink" x="0px" y="0px"
	 width="512px" height="512px" viewBox="0 0 512 512" enable-background="new 0 0 512 512" xml:space="preserve">
<g>
	<g>
		<g>
			<path fill="#F34737" d="M504.901,63.44L459.098,17.7c-4.729-4.729-10.947-7.099-17.155-7.099c-6.218,0-12.437,2.359-17.155,7.088
				L388.15,54.223l80.113,79.966l36.638-36.523C514.369,88.208,514.369,72.867,504.901,63.44z"/>
			<polygon fill="#F34737" points="150.327,291.615 230.441,371.592 451.118,151.323 371.005,71.347 			"/>
			<polygon fill="#F34737" points="133.036,308.719 115.933,405.745 213.149,388.685 			"/>
			<path fill="#F34737" d="M377.5,471.969H29.441V123.919h255.17l33.534-29.43H33.911C15.257,94.489,0,109.747,0,128.401v339.096
				c0,18.645,15.257,33.901,33.911,33.901h339.106c18.634,0,33.892-15.257,33.892-33.901V225.051l-29.431,33.346l0.021,190.572
				V471.969z"/>
		</g>
	</g>
</g>
</svg>
