<?xml version="1.0" encoding="utf-8"?>
<!-- Generator: Adobe Illustrator 16.0.3, SVG Export Plug-In . SVG Version: 6.00 Build 0)  -->
<!DOCTYPE svg PUBLIC "-//W3C//DTD SVG 1.1//EN" "http://www.w3.org/Graphics/SVG/1.1/DTD/svg11.dtd">
<svg version="1.1" id="Capa_1" xmlns="http://www.w3.org/2000/svg" xmlns:xlink="http://www.w3.org/1999/xlink" x="0px" y="0px"
	 width="569.166px" height="392px" viewBox="0 0 569.166 392" enable-background="new 0 0 569.166 392" xml:space="preserve">
<path fill="#F34837" d="M489.37,123.909v-3.567h-0.17l-0.408-66.152C484.884,23.662,459.843,0,429.599,0H59.838
	C26.831-0.001,0,28.072,0,62.609v264.422C0,361.566,26.831,392,59.837,392h189.915h57.746h0.776c0.72,0,1.392-0.07,2.022-0.203
	c11.547-1.121,20.506-9.217,20.506-19.045c0-9.766-8.844-17.818-20.281-19.023c-0.693-0.166-1.44-0.252-2.244-0.252h-0.779v-0.08
	H69.661c-17.921,0-32.501-17.615-32.501-36.365V72.715c0-18.751,14.58-34.006,32.501-34.006h350.014
	c16.488,0,30.14,12.917,32.218,29.586l0.266,55.637c-0.008,0.284,0.003,0.565,0.022,0.846v1.087c0,0.721,0.067,1.393,0.196,2.021
	c1.081,11.547,8.897,20.508,18.386,20.508c9.427,0,17.202-8.844,18.364-20.282c0.161-0.693,0.243-1.441,0.243-2.244v-0.591
	c0.008-0.125,0.026-0.247,0.031-0.373L489.37,123.909z"/>
<path fill="#F34837" d="M569.128,290.773c-0.023-4.982-1.621-9.96-4.827-14.104c-0.348-0.633-0.803-1.234-1.371-1.803
	l-15.186-15.187l-47.411-47.411l-15.184-15.183c-0.509-0.509-1.044-0.924-1.603-1.255c-9.125-7.205-22.4-6.602-30.823,1.822
	c-8.368,8.368-9.017,21.523-1.961,30.644c0.348,0.633,0.803,1.234,1.37,1.803l15.187,15.186l22.842,22.843H357.533
	c-0.72,0-1.392,0.085-2.021,0.246c-11.547,1.357-20.507,11.171-20.507,23.083c0,11.834,8.844,21.596,20.281,23.055
	c0.693,0.202,1.44,0.306,2.244,0.306h132.652l-22.865,22.865l-15.183,15.184c-0.509,0.509-0.924,1.044-1.255,1.603
	c-7.205,9.125-6.602,22.4,1.821,30.823c8.368,8.368,21.523,9.017,30.644,1.961c0.633-0.348,1.234-0.803,1.803-1.37l15.186-15.187
	l47.412-47.411l15.183-15.184c0.509-0.509,0.924-1.044,1.255-1.604C567.796,301.922,569.444,296.302,569.128,290.773z"/>
<path fill="#F34837" d="M439.083,38c-5.857-6.249-15.207-7.527-23.47-4H76.26c-9.248-6.791-21.548-6.489-28.644,1.146
	c-7.115,7.656-6.503,19.991,0.997,28.72c0.387,0.603,0.873,1.178,1.46,1.725l46.199,42.377l0.024-0.026l24.244,22.576l-0.386,0.165
	l62.208,58.007l-84.291,90.103c-0.365,0.361-0.671,0.768-0.934,1.209c-0.249,0.314-0.478,0.631-0.671,0.955
	c-7.075,9.205-6.951,21.67,0.681,28.908c7.584,7.191,19.924,6.703,28.729-0.709c0.606-0.383,1.187-0.861,1.739-1.443l17.459-18.91
	l-0.032-0.031l67.445-71.959l15.45,13.996c2.511,2.943,7.397,6.002,12.218,7.479c1.352,0.709,2.997,0.971,4.786,0.887
	c1.789,0.084,3.433-0.178,4.785-0.887c4.821-1.477,9.708-4.535,12.218-7.479l15.451-13.996l30.124-28.123l62.209-58.007
	l-0.387-0.165l23.882-22.239l0.042,0.045l38.001-34.755l4.731-4.406c0.099-0.092,0.188-0.193,0.279-0.292l0.462-0.433
	c0.525-0.493,0.965-1.007,1.325-1.54C445.667,58.124,446.277,45.673,439.083,38z"/>
</svg>
