<?xml version="1.0" encoding="utf-8"?>
<!-- Generator: Adobe Illustrator 16.0.3, SVG Export Plug-In . SVG Version: 6.00 Build 0)  -->
<!DOCTYPE svg PUBLIC "-//W3C//DTD SVG 1.1//EN" "http://www.w3.org/Graphics/SVG/1.1/DTD/svg11.dtd">
<svg version="1.1" id="content" xmlns="http://www.w3.org/2000/svg" xmlns:xlink="http://www.w3.org/1999/xlink" x="0px" y="0px"
	 width="1200px" height="958px" viewBox="0 0 1200 958" enable-background="new 0 0 1200 958" xml:space="preserve">
<g id="graph">
	<circle fill="none" stroke="#F7A5A1" stroke-width="0.7087" stroke-miterlimit="10" cx="143" cy="552.782" r="28"/>
	<circle fill="#EF4639" cx="143" cy="552.782" r="19"/>
	<path fill="#213472" d="M241,632.782c-5.677,0-10.758,2.503-14.24,6.45c-7.424-5.023-14.183-10.075-20.226-14.975
		c-23.164-18.771-42.808-40.951-56.542-62.984c2.447-2.02,4.007-5.072,4.007-8.491c0-6.074-4.925-11-11-11s-11,4.926-11,11
		c0,6.075,4.925,11.001,11,11.001c0.62,0,1.224-0.063,1.815-0.162c14.108,22.82,34.324,45.731,58.15,65.043
		c6.188,5.015,13.109,10.188,20.717,15.33c-1.072,2.379-1.682,5.01-1.682,7.788c0,10.493,8.506,19,19,19s19-8.507,19-19
		S251.494,632.782,241,632.782z"/>
	<path fill="#EF4639" d="M392,668.782c-9.581,0-17.483,7.099-18.789,16.316c-48.86-1.506-89.417-14.153-121.674-30.169
		c0.298-0.999,0.463-2.055,0.463-3.147c0-6.075-4.924-11-11-11c-6.075,0-11,4.925-11,11s4.925,11,11,11
		c2.922,0,5.57-1.146,7.54-3.005c33.007,16.463,74.583,29.485,124.719,30.995c1.438,9.067,9.27,16.01,18.742,16.01
		c10.494,0,19-8.508,19-19C411.001,677.289,402.494,668.782,392,668.782z M373,687.782c0-0.508,0.031-1.008,0.076-1.504
		C373.037,686.776,373,687.274,373,687.782c0,0.534,0.037,1.059,0.08,1.581C373.031,688.843,373,688.316,373,687.782z"/>
	<path fill="#213472" d="M535,614.782c-10.493,0-19,8.507-19,19c0,2.813,0.627,5.474,1.724,7.875
		c-0.001-0.002-0.001-0.003-0.002-0.005c-35.164,22.521-72.93,38.074-115.191,42.95c-1.364-4.523-5.561-7.82-10.529-7.82
		c-6.075,0-11,4.925-11,11s4.925,11,11,11c5.207,0,9.559-3.622,10.699-8.48c43.491-4.904,82.203-20.813,118.159-43.861
		c3.479,3.885,8.518,6.344,14.143,6.344c10.493,0,19-8.507,19-19S545.493,614.782,535,614.782z"/>
	<path fill="#EF4639" d="M646,509.782c-10.493,0-19,8.506-19,19c0,4.566,1.614,8.758,4.301,12.035
		c-29.021,31.174-58.288,60.299-89.257,84.52c-1.908-1.594-4.363-2.555-7.044-2.555c-6.075,0-11,4.925-11,11s4.925,11,11,11
		s11-4.925,11-11c0-1.323-0.246-2.585-0.673-3.762c31.331-24.49,60.887-53.922,90.184-85.401c-0.001-0.001-0.002-0.002-0.003-0.002
		c3.007,1.996,6.611,3.165,10.492,3.165c10.493,0,19-8.506,19-19S656.493,509.782,646,509.782z M631.604,541.161
		c0.256,0.296,0.518,0.588,0.788,0.868C632.121,541.749,631.86,541.457,631.604,541.161z M634.18,543.642
		c0.229,0.185,0.467,0.354,0.704,0.527C634.646,543.997,634.409,543.824,634.18,543.642z M632.906,542.527
		c0.22,0.21,0.443,0.415,0.676,0.612C633.352,542.942,633.127,542.737,632.906,542.527z"/>
	<path fill="#213472" d="M751,396.782c-10.493,0-19,8.506-19,19c0,4.249,1.412,8.158,3.768,11.32l0,0
		c-22.229,23.049-43.646,46.926-64.761,70.473c-6.406,7.145-12.787,14.259-19.16,21.314c-1.715-1.016-3.709-1.607-5.847-1.607
		c-6.352,0-11.5,5.146-11.5,11.5c0,6.353,5.148,11.5,11.5,11.5c6.354,0,11.5-5.147,11.5-11.5c0-2.153-0.603-4.16-1.632-5.884
		c6.438-7.133,12.887-14.32,19.358-21.538c21.18-23.618,42.509-47.399,64.549-70.272c-0.002-0.001-0.006-0.003-0.006-0.004
		c3.146,2.314,7.021,3.698,11.229,3.698c10.493,0,19-8.506,19-19S761.493,396.782,751,396.782z"/>
	<path fill="#EF4639" d="M863.5,305.532c-10.493,0-19,8.506-19,19c0,2.76,0.604,5.375,1.66,7.742
		c-0.004-0.008-0.008-0.015-0.011-0.021c-5.506,3.617-10.993,7.373-16.468,11.306c-25.845,18.575-50.101,39.688-73.313,62.121
		c-1.469-0.728-3.118-1.146-4.869-1.146c-6.075,0-11,4.924-11,11s4.925,11,11,11s11-4.924,11-11c0-2.272-0.689-4.383-1.869-6.136
		c27.754-26.818,56.912-51.624,88.51-72.446c3.483,4.024,8.618,6.582,14.359,6.582c10.493,0,19-8.506,19-19
		C882.5,314.04,873.993,305.532,863.5,305.532z M848.179,335.736c0.064,0.088,0.131,0.175,0.196,0.261
		C848.31,335.911,848.243,335.824,848.179,335.736z M847.388,334.567c0.039,0.063,0.075,0.127,0.115,0.188
		C847.463,334.695,847.427,334.63,847.388,334.567z"/>
	<path fill="#213472" d="M1008.25,258.032c-10.313,0-18.685,8.218-18.973,18.461c-40.522,6.1-79.453,19.233-117.419,39.605
		c-1.979-1.896-4.653-3.066-7.608-3.066c-6.075,0-11,4.924-11,11c0,6.076,4.925,11,11,11s11-4.924,11-11
		c0-1.121-0.17-2.201-0.481-3.22c34.945-18.762,72.942-32.431,115.181-38.74c-0.001-0.004-0.002-0.009-0.003-0.013
		c2.206,8.05,9.556,13.973,18.306,13.973c10.493,0,19-8.506,19-19C1027.251,266.538,1018.743,258.032,1008.25,258.032z
		 M989.332,278.663c-0.049-0.538-0.082-1.08-0.082-1.63C989.25,277.583,989.286,278.124,989.332,278.663z M989.407,279.361
		c0.028,0.246,0.071,0.488,0.11,0.731C989.479,279.85,989.438,279.606,989.407,279.361z"/>
</g>
<g id="lines">
	<g id="_x31_">
		<line fill="none" stroke="#ACB4C1" stroke-miterlimit="10" x1="143.052" y1="486" x2="143.052" y2="518"/>
		<circle fill="#ACB4C1" cx="143.052" cy="488.5" r="2.5"/>
		<circle fill="#ACB4C1" cx="143.052" cy="515.5" r="2.5"/>
	</g>
	<g id="_x32_">
		<circle fill="#ACB4C1" cx="213.5" cy="661.5" r="2.5"/>
		<circle fill="#ACB4C1" cx="182.5" cy="690.5" r="2.5"/>
		<path fill="none" stroke="#ACB4C1" stroke-miterlimit="10" d="M212.5,661.25c-16.583,0-30,13.418-30,30"/>
	</g>
	<g id="_x33_">
		<line fill="none" stroke="#ACB4C1" stroke-miterlimit="10" x1="392.5" y1="715" x2="392.5" y2="784"/>
		<circle fill="#ACB4C1" cx="392.5" cy="717.5" r="2.5"/>
		<circle fill="#ACB4C1" cx="392.5" cy="781.5" r="2.5"/>
	</g>
	<g id="_x34_">
		<circle fill="#ACB4C1" cx="538.662" cy="660.939" r="2.5"/>
		<circle fill="#ACB4C1" cx="563.338" cy="707.061" r="2.5"/>
		<path fill="none" stroke="#ACB4C1" stroke-miterlimit="10" d="M538.131,661.822c-5.828,19.071,4.891,39.223,23.963,45.049"/>
	</g>
	<g id="_x35_">
		<circle fill="#ACB4C1" cx="703.556" cy="569.385" r="2.5"/>
		<circle fill="#ACB4C1" cx="672.444" cy="535.615" r="2.5"/>
		<path fill="none" stroke="#ACB4C1" stroke-miterlimit="10" d="M703.376,568.429c0.899-17.304-12.376-32.033-29.68-32.932"/>
	</g>
	<g id="_x36_">
		<circle fill="#ACB4C1" cx="661.153" cy="358.83" r="2.5"/>
		<circle fill="#ACB4C1" cx="722.847" cy="415.17" r="2.5"/>
		<path fill="none" stroke="#ACB4C1" stroke-miterlimit="10" d="M660.946,359.839c1.384,32.086,28.471,56.933,60.556,55.545"/>
	</g>
	<g id="_x37_">
		<circle fill="#ACB4C1" cx="864.257" cy="297.143" r="2.5"/>
		<circle fill="#ACB4C1" cx="827.919" cy="227.401" r="2.5"/>
		<path fill="none" stroke="#ACB4C1" stroke-miterlimit="10" d="M863.838,297.301c9.684-28.798-5.789-59.938-34.586-69.616"/>
	</g>
	<g id="_x38_">
		<line fill="none" stroke="#ACB4C1" stroke-miterlimit="10" x1="1008.5" y1="152" x2="1008.5" y2="252"/>
		<circle fill="#ACB4C1" cx="1008.5" cy="154.5" r="2.5"/>
		<circle fill="#ACB4C1" cx="1008.5" cy="249.5" r="2.5"/>
	</g>
</g>
<g id="text">
	<g id="_x31__1_">
		<text transform="matrix(1 0 0 1 139.0205 558.001)" fill="#FFFFFF" font-family="'Roboto-BoldItalic'" font-size="14.1732">1</text>
		<g>
			
				<circle fill="none" stroke="#213472" stroke-width="1.4173" stroke-miterlimit="10" stroke-dasharray="0.7078,2.8311" cx="143.052" cy="438.234" r="40"/>
		</g>
		<circle fill="#FFFFFF" stroke="#213472" stroke-width="1.4173" stroke-miterlimit="10" cx="143.052" cy="438.234" r="33.333"/>
		<text transform="matrix(1 0 0 1 198.7168 423.0586)" fill="#232438" font-family="'Roboto-Medium'" font-size="17.0079">Запрос рынка на</text>
		<text transform="matrix(1 0 0 1 198.7168 443.4678)" fill="#232438" font-family="'Roboto-Medium'" font-size="17.0079">инновационное</text>
		<text transform="matrix(1 0 0 1 198.7168 463.877)" fill="#232438" font-family="'Roboto-Medium'" font-size="17.0079">решение</text>
	</g>
	<g id="_x32__1_">
		<text transform="matrix(1 0 0 1 237.0205 656.6406)" fill="#FFFFFF" font-family="'Roboto-BoldItalic'" font-size="14.1732">2</text>
		<g>
			
				<circle fill="none" stroke="#EF4639" stroke-width="1.4173" stroke-miterlimit="10" stroke-dasharray="0.7078,2.8311" cx="179.162" cy="739.498" r="40"/>
		</g>
		<circle fill="#FFFFFF" stroke="#EF4639" stroke-width="1.4173" stroke-miterlimit="10" cx="179.162" cy="739.498" r="33.333"/>
		<text transform="matrix(1 0 0 1 232.2422 734.2637)" fill="#232438" font-family="'Roboto-Medium'" font-size="17.0079">Сильная идея</text>
		<text transform="matrix(1 0 0 1 232.2422 754.6738)" fill="#232438" font-family="'Roboto-Medium'" font-size="17.0079">(инновация)</text>
	</g>
	<g id="_x33__1_">
		<text transform="matrix(1 0 0 1 388.187 692.833)" fill="#FFFFFF" font-family="'Roboto-BoldItalic'" font-size="14.1732">3</text>
		<g>
			
				<circle fill="none" stroke="#213472" stroke-width="1.4173" stroke-miterlimit="10" stroke-dasharray="0.7078,2.8311" cx="393.059" cy="830.558" r="40"/>
		</g>
		<circle fill="#FFFFFF" stroke="#213472" stroke-width="1.4173" stroke-miterlimit="10" cx="393.059" cy="830.557" r="34.285"/>
		<text transform="matrix(1 0 0 1 447.728 814.8613)" fill="#232438" font-family="'Roboto-Medium'" font-size="17.0079">Конкретное инженерно-</text>
		<text transform="matrix(1 0 0 1 447.728 835.2715)" fill="#232438" font-family="'Roboto-Medium'" font-size="17.0079">технологическое</text>
		<text transform="matrix(1 0 0 1 447.728 855.6807)" fill="#232438" font-family="'Roboto-Medium'" font-size="17.0079">решение</text>
	</g>
	<g id="_x34__1_">
		<text transform="matrix(1 0 0 1 530.687 638.6406)" fill="#FFFFFF" font-family="'Roboto-BoldItalic'" font-size="14.1732">4</text>
		<g>
			
				<circle fill="none" stroke="#EF4639" stroke-width="1.4173" stroke-miterlimit="10" stroke-dasharray="0.7078,2.8311" cx="599.696" cy="740.415" r="40"/>
		</g>
		<circle fill="#FFFFFF" stroke="#EF4639" stroke-width="1.4173" stroke-miterlimit="10" cx="599.696" cy="740.415" r="33.334"/>
		<text transform="matrix(1 0 0 1 652.3789 734.2637)" fill="#232438" font-family="'Roboto-Medium'" font-size="17.0079">Техническая</text>
		<text transform="matrix(1 0 0 1 652.3789 754.6738)" fill="#232438" font-family="'Roboto-Medium'" font-size="17.0079">реализация</text>
	</g>
	<g id="_x35__1_">
		<text transform="matrix(1 0 0 1 642.0205 534)" fill="#FFFFFF" font-family="'Roboto-BoldItalic'" font-size="14.1732">5</text>
		<g>
			
				<circle fill="none" stroke="#213472" stroke-width="1.4173" stroke-miterlimit="10" stroke-dasharray="0.7078,2.8311" cx="715.995" cy="616.332" r="40"/>
		</g>
		<circle fill="#FFFFFF" stroke="#213472" stroke-width="1.4173" stroke-miterlimit="10" cx="715.995" cy="616.332" r="33.334"/>
		<text transform="matrix(1 0 0 1 766.7168 611.0977)" fill="#232438" font-family="'Roboto-Medium'" font-size="17.0079">Знания и</text>
		<text transform="matrix(1 0 0 1 766.7168 631.5078)" fill="#232438" font-family="'Roboto-Medium'" font-size="17.0079">опыт</text>
	</g>
	<g id="_x36__1_">
		<text transform="matrix(1 0 0 1 747.1543 420.1816)" fill="#FFFFFF" font-family="'Roboto-BoldItalic'" font-size="14.1732">6</text>
		<g>
			
				<circle fill="none" stroke="#EF4639" stroke-width="1.4173" stroke-miterlimit="10" stroke-dasharray="0.7078,2.8311" cx="651.131" cy="308.938" r="40"/>
		</g>
		<circle fill="#FFFFFF" stroke="#EF4639" stroke-width="1.4173" stroke-miterlimit="10" cx="651.131" cy="308.938" r="33.333"/>
		<text transform="matrix(1 0 0 1 704.4004 304.0488)" fill="#232438" font-family="'Roboto-Medium'" font-size="17.0079">Стандартное</text>
		<text transform="matrix(1 0 0 1 704.4004 324.459)" fill="#232438" font-family="'Roboto-Medium'" font-size="17.0079">решение</text>
	</g>
	<g id="_x37__1_">
		<text transform="matrix(1 0 0 1 860.5205 329.5)" fill="#FFFFFF" font-family="'Roboto-BoldItalic'" font-size="14.1732">7</text>
		<g>
			
				<circle fill="none" stroke="#213472" stroke-width="1.4173" stroke-miterlimit="10" stroke-dasharray="0.7078,2.8311" cx="786.655" cy="200.68" r="40"/>
		</g>
		<circle fill="#FFFFFF" stroke="#213472" stroke-width="1.4173" stroke-miterlimit="10" cx="786.655" cy="200.68" r="33.524"/>
		<text transform="matrix(1 0 0 1 837.2422 195.4453)" fill="#232438" font-family="'Roboto-Medium'" font-size="17.0079">Масштабирование/</text>
		<text transform="matrix(1 0 0 1 837.2422 215.8555)" fill="#232438" font-family="'Roboto-Medium'" font-size="17.0079">тиражирование</text>
	</g>
	<g id="_x38__1_">
		<circle fill="#F34837" cx="1008.333" cy="277" r="10.667"/>
		<text transform="matrix(1 0 0 1 1004.0205 282)" fill="#FFFFFF" font-family="'Roboto-BoldItalic'" font-size="14.1732">8</text>
		<g>
			
				<circle fill="none" stroke="#EF4639" stroke-width="1.4173" stroke-miterlimit="10" stroke-dasharray="0.7078,2.8311" cx="1008.521" cy="103.68" r="40"/>
		</g>
		<circle fill="#FFFFFF" stroke="#EF4639" stroke-width="1.4173" stroke-miterlimit="10" cx="1008.604" cy="103.68" r="33.333"/>
		<text transform="matrix(1 0 0 1 1059.7305 88.2402)" fill="#232438" font-family="'Roboto-Medium'" font-size="17.0079">Результаты,</text>
		<text transform="matrix(1 0 0 1 1059.7305 108.6504)" fill="#232438" font-family="'Roboto-Medium'" font-size="17.0079">превосходящие</text>
		<text transform="matrix(1 0 0 1 1059.7305 129.0596)" fill="#232438" font-family="'Roboto-Medium'" font-size="17.0079">ожидания</text>
	</g>
</g>
<g id="Symbols_1_">
	<g id="_x31__2_">
		<g>
			<g>
				<path fill="#213472" d="M155.5,438.5c0,0.552-0.448,1-1,1h-22c-0.552,0-1-0.448-1-1l0,0c0-0.552,0.448-1,1-1h22
					C155.052,437.5,155.5,437.948,155.5,438.5L155.5,438.5z"/>
			</g>
		</g>
	</g>
	<g id="_x32__2_">
		<g>
			<path fill="#EF4639" d="M203.167,738.666h-11.299c-0.514-6.702-6.119-12-12.95-12s-12.436,5.298-12.949,12h-10.802
				c-0.55,0-1,0.45-1,1s0.45,1,1,1h10.802c0.514,6.702,6.118,12,12.949,12s12.437-5.298,12.95-12h11.299c0.55,0,1-0.45,1-1
				S203.716,738.666,203.167,738.666z M178.917,728.666c5.728,0,10.442,4.402,10.95,10h-3.701v-4c0-0.55-0.45-1-1-1s-1,0.45-1,1v4
				h-0.391c-0.118-0.143-0.254-0.273-0.422-0.383l-6.806-4.399c-0.301-0.193-0.626-0.297-0.941-0.297
				c-0.716,0-1.441,0.548-1.441,1.595v3.484h-6.198C168.477,733.068,173.189,728.666,178.917,728.666z M176.167,740.666h4.098
				l-4.098,2.648V740.666z M176.167,738.666v-2.648l4.098,2.648H176.167z M178.917,750.666c-5.728,0-10.442-4.402-10.949-10h6.198
				v3.484c0,1.047,0.725,1.595,1.441,1.595c0.32,0,0.636-0.102,0.941-0.297l6.806-4.399c0.168-0.108,0.304-0.24,0.422-0.383h0.391v4
				c0,0.55,0.45,1,1,1s1-0.45,1-1v-4h3.701C189.36,746.264,184.645,750.666,178.917,750.666z"/>
			<path fill="#EF4639" d="M197.242,724.246l1.518,0.018l-6.296,6.158c-0.212,0.208-0.244,0.523-0.037,0.736
				c0.207,0.211,0.523,0.188,0.737-0.021l6.295-6.157l-0.017,1.519c-0.006,0.298,0.197,0.542,0.492,0.546
				c0.297,0.003,0.504-0.236,0.508-0.535l0.027-2.621c0.004-0.174-0.068-0.319-0.182-0.421c-0.096-0.116-0.243-0.188-0.413-0.189
				l-2.621-0.029c-0.3-0.002-0.545,0.197-0.549,0.494C196.703,724.036,196.944,724.243,197.242,724.246z"/>
			<path fill="#EF4639" d="M188.967,726.846l6.295-6.157l-0.018,1.519c-0.002,0.297,0.199,0.542,0.495,0.546
				c0.296,0.004,0.502-0.236,0.506-0.535l0.028-2.621c0.002-0.172-0.069-0.319-0.183-0.42c-0.097-0.112-0.243-0.188-0.415-0.188
				l-2.619-0.029c-0.298-0.003-0.543,0.197-0.547,0.494c-0.004,0.297,0.236,0.503,0.536,0.505l1.517,0.018l-6.295,6.158
				c-0.213,0.208-0.244,0.523-0.037,0.736C188.438,727.079,188.754,727.055,188.967,726.846z"/>
		</g>
	</g>
	<g id="_x33__2_">
		<g>
			<path fill="#213472" d="M400.86,822.347c-0.254-0.489-0.857-0.68-1.349-0.425l-16.618,9.716
				c-0.014,0.008-0.021,0.021-0.034,0.028h-13.693c-0.553,0-1,0.448-1,1s0.447,1,1,1h14c0.252,0,0.476,0,0.651,0
				c0.001,0,0.001,0,0.002,0l16.618-9.845C400.928,823.567,401.117,822.836,400.86,822.347z"/>
			<path fill="#213472" d="M417.167,831.667h-12.643c-0.446-1.721-2-3-3.857-3c-2.206,0-4,1.794-4,4s1.794,4,4,4
				c1.857,0,3.411-1.279,3.857-3h12.643c0.553,0,1-0.448,1-1S417.719,831.667,417.167,831.667z M400.667,834.667
				c-1.104,0-2-0.896-2-2s0.896-2,2-2s2,0.896,2,2S401.77,834.667,400.667,834.667z"/>
		</g>
	</g>
	<g id="_x34__2_">
		<path fill="#EF4639" d="M612.696,740.167c0-5.021-2.867-9.37-7.045-11.531c0.018-0.073,0.045-0.143,0.045-0.221v-4
			c0-0.55-0.45-1-1-1h-4v-7c0-0.55-0.451-1-1-1s-1,0.45-1,1v7h-4c-0.55,0-1,0.45-1,1v4c0,0.078,0.027,0.147,0.045,0.221
			c-4.178,2.161-7.045,6.511-7.045,11.531c0,5.096,2.951,9.507,7.232,11.634c-0.138,0.171-0.232,0.379-0.232,0.614v4
			c0,0.55,0.45,1,1,1h4v7c0,0.55,0.45,1,1,1s1-0.45,1-1v-7h4c0.55,0,1-0.45,1-1v-4c0-0.235-0.095-0.443-0.231-0.614
			C609.745,749.674,612.696,745.263,612.696,740.167z M595.696,725.415h3h2h3v2.409c-0.958-0.311-1.959-0.526-3-0.606
			c-0.332-0.025-0.663-0.051-1-0.051s-0.669,0.025-1,0.051c-1.041,0.08-2.042,0.296-3,0.606V725.415z M603.696,755.415h-3h-2h-3
			v-2.905c0.958,0.311,1.959,0.526,3,0.606c0.331,0.025,0.662,0.051,1,0.051s0.669-0.025,1-0.051c1.041-0.08,2.042-0.296,3-0.606
			V755.415z M600.696,751.116c-0.331,0.03-0.663,0.051-1,0.051s-0.67-0.021-1-0.051c-5.598-0.508-10-5.222-10-10.949
			c0-5.729,4.402-10.441,10-10.949c0.33-0.03,0.662-0.051,1-0.051s0.67,0.021,1,0.051c5.598,0.508,10,5.221,10,10.949
			C610.696,745.895,606.294,750.608,600.696,751.116z"/>
		<path fill="#EF4639" d="M604.678,735.524c-0.057-0.063-0.131-0.11-0.221-0.143s-0.197-0.049-0.322-0.049h-1.225
			c-0.17,0-0.32,0.018-0.449,0.053c-0.129,0.034-0.242,0.093-0.336,0.176c-0.096,0.084-0.178,0.191-0.25,0.326
			c-0.07,0.133-0.137,0.297-0.197,0.49l-2.006,5.322h-0.027l-1.938-5.336c-0.056-0.193-0.12-0.355-0.193-0.488
			c-0.074-0.131-0.166-0.236-0.277-0.318c-0.111-0.08-0.242-0.138-0.395-0.172c-0.152-0.035-0.334-0.053-0.547-0.053h-1.189
			c-0.209,0-0.375,0.063-0.499,0.188s-0.187,0.305-0.187,0.539v7.98c0,0.045,0.012,0.088,0.037,0.123
			c0.025,0.037,0.072,0.068,0.139,0.092c0.067,0.021,0.156,0.041,0.268,0.055c0.109,0.014,0.248,0.021,0.414,0.021
			c0.171,0,0.311-0.008,0.419-0.021s0.197-0.033,0.267-0.055c0.069-0.023,0.117-0.055,0.143-0.092
			c0.024-0.035,0.037-0.078,0.037-0.123v-7.288h0.014l2.505,7.28c0.014,0.051,0.043,0.096,0.084,0.131
			c0.041,0.037,0.098,0.068,0.17,0.094c0.07,0.025,0.162,0.045,0.273,0.057c0.109,0.012,0.244,0.018,0.4,0.018
			s0.291-0.004,0.402-0.012c0.109-0.006,0.201-0.021,0.273-0.045c0.07-0.023,0.127-0.055,0.168-0.094
			c0.043-0.039,0.073-0.088,0.092-0.148l2.594-7.28h0.014v7.288c0,0.045,0.014,0.088,0.043,0.123
			c0.027,0.037,0.072,0.068,0.139,0.092c0.064,0.021,0.15,0.041,0.262,0.055s0.25,0.021,0.416,0.021c0.17,0,0.311-0.008,0.422-0.021
			s0.199-0.033,0.266-0.055c0.068-0.023,0.113-0.055,0.139-0.092c0.025-0.035,0.039-0.078,0.039-0.123v-7.98
			c0-0.115-0.016-0.217-0.045-0.308C604.779,735.662,604.736,735.586,604.678,735.524z"/>
	</g>
	<g id="_x35__2_">
		<path fill="#213472" d="M740,615.5h-19.5V607c0-0.55-0.45-1-1-1s-1,0.45-1,1v18c0,0.55,0.45,1,1,1s1-0.45,1-1v-7.5H740
			c0.55,0,1-0.45,1-1S740.55,615.5,740,615.5z"/>
		<path fill="#213472" d="M711.5,606c-0.55,0-1,0.45-1,1v8.5H692c-0.55,0-1,0.45-1,1s0.45,1,1,1h18.5v7.5c0,0.55,0.45,1,1,1
			s1-0.45,1-1v-18C712.5,606.45,712.05,606,711.5,606z"/>
	</g>
	<g id="_x36__2_">
		<path fill="#EF4639" d="M675.125,308.5h-17v-4c0-0.55-0.45-1-1-1s-1,0.45-1,1v4h-0.391c-0.118-0.142-0.254-0.274-0.422-0.383
			l-6.807-4.399c-0.301-0.194-0.626-0.297-0.939-0.297c-0.718,0-1.441,0.548-1.441,1.594v3.485h-19c-0.55,0-1,0.45-1,1s0.45,1,1,1
			h19v3.484c0,1.048,0.727,1.595,1.441,1.595c0.317,0,0.637-0.101,0.939-0.297l6.807-4.399c0.168-0.108,0.304-0.241,0.422-0.383
			h0.391v3h-1c-0.55,0-1,0.45-1,1s0.45,1,1,1h2c0.55,0,1-0.45,1-1v-4h17c0.55,0,1-0.45,1-1S675.675,308.5,675.125,308.5z
			 M648.125,305.852l4.098,2.648h-4.098V305.852z M648.125,313.146V310.5h4.098L648.125,313.146z"/>
	</g>
	<g id="_x37__2_">
		<path fill="#213472" d="M811,200h-13v-3.564c0-1.047-0.725-1.594-1.441-1.594c-0.319,0-0.636,0.1-0.939,0.297l-6.807,4.399
			c-0.198,0.128-0.354,0.289-0.48,0.462H788v-3h1c0.552,0,1-0.447,1-1c0-0.553-0.448-1-1-1h-2c-0.552,0-1,0.447-1,1v4h-0.391
			c-0.118-0.142-0.254-0.274-0.422-0.383l-6.807-4.399c-0.301-0.194-0.626-0.297-0.939-0.297c-0.718,0-1.441,0.547-1.441,1.594V200
			h-13c-0.55,0-1,0.45-1,1s0.45,1,1,1h13v3.484c0,1.048,0.725,1.595,1.441,1.595c0.318,0,0.636-0.101,0.939-0.297l6.807-4.399
			c0.168-0.108,0.304-0.241,0.422-0.383H786v3h-1c-0.55,0-1,0.45-1,1s0.45,1,1,1h2c0.55,0,1-0.45,1-1v-4h0.451
			c0.104,0.111,0.223,0.215,0.358,0.304l6.808,4.399c0.301,0.193,0.626,0.297,0.94,0.297l0,0c0.439,0,0.847-0.199,1.112-0.546
			c0.216-0.281,0.329-0.644,0.329-1.048V202h13c0.55,0,1-0.45,1-1S811.55,200,811,200z M778,197.352l4.098,2.648H778V197.352z
			 M778,204.646V202h4.096L778,204.646z M796,197.273V200h-4.219L796,197.273z M796,204.568L792.025,202H796V204.568z"/>
	</g>
	<g id="_x38__2_">
		<path fill="#EF4639" d="M1019.203,102.667h-10v-10c0-0.55-0.45-1-1-1s-1,0.45-1,1v10h-10c-0.55,0-1,0.45-1,1s0.45,1,1,1h10v10
			c0,0.55,0.45,1,1,1s1-0.45,1-1v-10h10c0.55,0,1-0.45,1-1S1019.753,102.667,1019.203,102.667z"/>
	</g>
</g>
</svg>
