<?xml version="1.0" encoding="utf-8"?>
<!-- Generator: Adobe Illustrator 16.0.3, SVG Export Plug-In . SVG Version: 6.00 Build 0)  -->
<!DOCTYPE svg PUBLIC "-//W3C//DTD SVG 1.1//EN" "http://www.w3.org/Graphics/SVG/1.1/DTD/svg11.dtd">
<svg version="1.1" id="Capa_1" xmlns="http://www.w3.org/2000/svg" xmlns:xlink="http://www.w3.org/1999/xlink" x="0px" y="0px"
	 width="512px" height="512px" viewBox="0 0 512 512" enable-background="new 0 0 512 512" xml:space="preserve">
<path fill="#F34737" d="M420.327,314.593h-59.94l25.505-36.829c48.171-64.21,41.198-169.752-14.908-225.851
	C340.675,21.596,300.363,4.896,257.482,4.896c-42.873,0-83.185,16.699-113.503,47.017c-56.106,56.099-63.079,161.649-15.1,225.599
	l25.68,37.09H91.672L0,507.111h512L420.327,314.593z M258.963,105.333c32.302,0,58.593,26.292,58.593,58.593
	s-26.291,58.593-58.593,58.593s-58.593-26.292-58.593-58.593S226.654,105.333,258.963,105.333z M102.252,331.334h63.9
	l91.329,131.892l91.32-131.892h60.945l75.735,159.037H26.518L102.252,331.334z"/>
</svg>
