<?xml version="1.0" encoding="utf-8"?>
<!-- Generator: Adobe Illustrator 16.0.3, SVG Export Plug-In . SVG Version: 6.00 Build 0)  -->
<!DOCTYPE svg PUBLIC "-//W3C//DTD SVG 1.1//EN" "http://www.w3.org/Graphics/SVG/1.1/DTD/svg11.dtd">
<svg version="1.1" id="Capa_1" xmlns="http://www.w3.org/2000/svg" xmlns:xlink="http://www.w3.org/1999/xlink" x="0px" y="0px"
	 width="512px" height="512px" viewBox="0 0 512 512" enable-background="new 0 0 512 512" xml:space="preserve">
<g>
	<g>
		<path fill="#F34737" d="M241.769,343.587h-12.397c-6.439,0-11.659-5.203-11.659-11.659c0-2.393,0.964-4.673,2.666-6.359
			c7.211-7.033,13.281-16.444,17.665-26.626c0.899,0.658,1.847,1.124,2.923,1.124c6.97,0,15.144-15.369,15.144-25.871
			c0-10.471-0.963-18.966-7.933-18.966c-0.819,0-1.702,0.145-2.602,0.37c-0.498-28.441-7.677-63.932-51.117-63.932
			c-45.318,0-50.603,35.41-51.116,63.835c-0.643-0.112-1.285-0.257-1.879-0.257c-6.97,0-7.934,8.495-7.934,18.981
			c0,10.471,8.175,25.872,15.145,25.872c0.867,0,1.653-0.257,2.408-0.69c4.368,10.005,10.358,19.255,17.473,26.192
			c1.702,1.671,2.666,3.95,2.666,6.344c0,6.423-5.22,11.675-11.659,11.675h-12.333c-26.53,0-48.033,21.487-48.033,48.018v13.313
			c0,8.383,6.793,15.16,15.159,15.16h160.271c8.383,0,15.176-6.809,15.176-15.16v-13.313
			C289.802,365.09,268.315,343.587,241.769,343.587z"/>
		<path fill="#F34737" d="M410.595,211.821H276.163c3.887,8.591,6.648,19.158,7.805,32.23c2.875,1.767,5.027,4.625,6.794,8.078
			h119.817c6.215,0,11.226-5.027,11.226-11.242v-17.826C421.821,216.848,416.794,211.821,410.595,211.821z"/>
		<path fill="#F34737" d="M410.595,285.26H293.508c-3.164,12.012-11.018,24.57-21.825,27.928c-0.321,0.594-0.69,1.123-1.027,1.686
			v10.695h139.907c6.231,0,11.258-5.026,11.258-11.258v-17.809C421.821,290.286,416.794,285.26,410.595,285.26z"/>
		<path fill="#F34737" d="M410.595,358.699h-91.393c6.022,9.555,9.555,20.813,9.555,32.921v7.388h81.822
			c6.23,0,11.257-5.011,11.257-11.227v-17.825C421.821,363.709,416.794,358.699,410.595,358.699z"/>
		<path fill="#F34737" d="M441.869,99.76h-115.61V0h-131.75v99.76H70.115c-38.125,0-69.038,30.914-69.038,69.039v274.163
			C1.076,481.086,31.99,512,70.115,512h371.738c38.141,0,69.055-30.914,69.055-69.039V168.798
			C510.907,130.658,480.01,99.76,441.869,99.76z M227.077,32.6h66.565v101.88h-66.565V32.6z M478.323,442.961
			c0,20.091-16.364,36.438-36.438,36.438H70.115c-20.09,0-36.438-16.348-36.438-36.438V168.798c0-20.09,16.349-36.438,36.438-36.438
			h124.362v34.72h131.766v-34.72h115.61c20.106,0,36.455,16.349,36.455,36.438L478.323,442.961L478.323,442.961z"/>
		<circle fill="#F34737" cx="261.54" cy="75.302" r="14.261"/>
	</g>
</g>
</svg>
