<?xml version="1.0" encoding="utf-8"?>
<!-- Generator: Adobe Illustrator 16.0.3, SVG Export Plug-In . SVG Version: 6.00 Build 0)  -->
<!DOCTYPE svg PUBLIC "-//W3C//DTD SVG 1.1//EN" "http://www.w3.org/Graphics/SVG/1.1/DTD/svg11.dtd">
<svg version="1.1" id="Capa_1" xmlns="http://www.w3.org/2000/svg" xmlns:xlink="http://www.w3.org/1999/xlink" x="0px" y="0px"
	 width="512px" height="512px" viewBox="0 0 512 512" enable-background="new 0 0 512 512" xml:space="preserve">
<g>
	<path fill="#F34737" d="M512,201.074c0-7.59-5.742-12.308-17.235-14.156l-154.456-22.458L271.079,24.458
		c-3.896-8.411-8.925-12.614-15.078-12.614c-6.151,0-11.178,4.203-15.076,12.614l-69.232,140.003L17.229,186.918
		C5.744,188.767,0,193.484,0,201.074c0,4.31,2.564,9.233,7.693,14.771L119.696,324.77L93.234,478.613
		c-0.41,2.873-0.614,4.931-0.614,6.156c0,4.308,1.076,7.946,3.229,10.924c2.151,2.98,5.381,4.464,9.69,4.464
		c3.694,0,7.795-1.226,12.308-3.689l138.151-72.623l138.161,72.623c4.315,2.464,8.417,3.689,12.303,3.689
		c4.116,0,7.237-1.483,9.391-4.464c2.146-2.973,3.224-6.616,3.224-10.924c0-2.663-0.104-4.715-0.31-6.156L392.303,324.77
		l111.692-108.924C509.337,210.512,512,205.587,512,201.074z"/>
</g>
</svg>
